<mxfile host="app.diagrams.net" modified="2021-10-14T11:25:47.524Z" agent="5.0 (Macintosh; Intel Mac OS X 10_15_7) AppleWebKit/537.36 (KHTML, like Gecko) Chrome/94.0.4606.71 Safari/537.36" etag="2g27iz52QCz1U0Yulibk" version="15.2.7" type="github" pages="2">
  <diagram name="Page-1" id="9f46799a-70d6-7492-0946-bef42562c5a5">
    <mxGraphModel dx="2526" dy="1587" grid="1" gridSize="10" guides="1" tooltips="1" connect="1" arrows="1" fold="1" page="1" pageScale="1" pageWidth="1100" pageHeight="850" background="none" math="0" shadow="0">
      <root>
        <mxCell id="0" />
        <mxCell id="1" parent="0" />
        <mxCell id="IgbEDBTEm1nNIh6Lax4I-73" value="" style="rounded=1;whiteSpace=wrap;html=1;dashed=1;fillColor=#f8cecc;strokeColor=#b85450;glass=0;sketch=0;shadow=0;gradientColor=#ea6b66;" parent="1" vertex="1">
          <mxGeometry x="60" y="-660" width="917.5" height="257.5" as="geometry" />
        </mxCell>
        <mxCell id="IgbEDBTEm1nNIh6Lax4I-77" style="edgeStyle=orthogonalEdgeStyle;rounded=0;orthogonalLoop=1;jettySize=auto;html=1;entryX=0;entryY=0.5;entryDx=0;entryDy=0;" parent="1" source="IgbEDBTEm1nNIh6Lax4I-74" target="IgbEDBTEm1nNIh6Lax4I-73" edge="1">
          <mxGeometry relative="1" as="geometry" />
        </mxCell>
        <mxCell id="IgbEDBTEm1nNIh6Lax4I-74" value="&lt;font style=&quot;font-size: 18px&quot;&gt;webView&lt;/font&gt;" style="rounded=0;whiteSpace=wrap;html=1;fillColor=#f8cecc;strokeColor=#b85450;gradientColor=#ea6b66;" parent="1" vertex="1">
          <mxGeometry x="-110" y="-561.25" width="120" height="60" as="geometry" />
        </mxCell>
        <mxCell id="IgbEDBTEm1nNIh6Lax4I-79" style="edgeStyle=orthogonalEdgeStyle;rounded=0;orthogonalLoop=1;jettySize=auto;html=1;entryX=0;entryY=0.5;entryDx=0;entryDy=0;" parent="1" source="IgbEDBTEm1nNIh6Lax4I-78" target="IgbEDBTEm1nNIh6Lax4I-75" edge="1">
          <mxGeometry relative="1" as="geometry" />
        </mxCell>
        <mxCell id="IgbEDBTEm1nNIh6Lax4I-78" value="&lt;font style=&quot;font-size: 18px&quot;&gt;android&lt;/font&gt;" style="rounded=0;whiteSpace=wrap;html=1;fillColor=#f8cecc;strokeColor=#b85450;gradientColor=#ea6b66;" parent="1" vertex="1">
          <mxGeometry x="-110" y="-271.25" width="120" height="60" as="geometry" />
        </mxCell>
        <mxCell id="IgbEDBTEm1nNIh6Lax4I-80" value="" style="group" parent="1" vertex="1" connectable="0">
          <mxGeometry x="100" y="-620" width="832.5" height="190" as="geometry" />
        </mxCell>
        <mxCell id="IgbEDBTEm1nNIh6Lax4I-28" value="" style="rounded=1;whiteSpace=wrap;html=1;fillColor=#dae8fc;strokeColor=#6c8ebf;" parent="IgbEDBTEm1nNIh6Lax4I-80" vertex="1">
          <mxGeometry x="157.5" width="675" height="70" as="geometry" />
        </mxCell>
        <mxCell id="IgbEDBTEm1nNIh6Lax4I-29" value="业务层" style="rounded=0;whiteSpace=wrap;html=1;fillColor=#dae8fc;strokeColor=#6c8ebf;gradientColor=#7ea6e0;" parent="IgbEDBTEm1nNIh6Lax4I-80" vertex="1">
          <mxGeometry y="5" width="120" height="60" as="geometry" />
        </mxCell>
        <mxCell id="IgbEDBTEm1nNIh6Lax4I-30" value="打印" style="rounded=0;whiteSpace=wrap;html=1;fillColor=#e1d5e7;strokeColor=#9673a6;" parent="IgbEDBTEm1nNIh6Lax4I-80" vertex="1">
          <mxGeometry x="185" y="20" width="100" height="35" as="geometry" />
        </mxCell>
        <mxCell id="IgbEDBTEm1nNIh6Lax4I-31" value="电子秤" style="rounded=0;whiteSpace=wrap;html=1;fillColor=#e1d5e7;strokeColor=#9673a6;" parent="IgbEDBTEm1nNIh6Lax4I-80" vertex="1">
          <mxGeometry x="300" y="20" width="100" height="35" as="geometry" />
        </mxCell>
        <mxCell id="IgbEDBTEm1nNIh6Lax4I-32" value="副屏" style="rounded=0;whiteSpace=wrap;html=1;fillColor=#e1d5e7;strokeColor=#9673a6;" parent="IgbEDBTEm1nNIh6Lax4I-80" vertex="1">
          <mxGeometry x="420" y="20" width="100" height="35" as="geometry" />
        </mxCell>
        <mxCell id="IgbEDBTEm1nNIh6Lax4I-33" value="扫码" style="rounded=0;whiteSpace=wrap;html=1;fillColor=#e1d5e7;strokeColor=#9673a6;" parent="IgbEDBTEm1nNIh6Lax4I-80" vertex="1">
          <mxGeometry x="540" y="20" width="100" height="35" as="geometry" />
        </mxCell>
        <mxCell id="IgbEDBTEm1nNIh6Lax4I-34" value="。。。" style="rounded=0;whiteSpace=wrap;html=1;fillColor=#e1d5e7;strokeColor=#9673a6;" parent="IgbEDBTEm1nNIh6Lax4I-80" vertex="1">
          <mxGeometry x="660" y="20" width="100" height="35" as="geometry" />
        </mxCell>
        <mxCell id="IgbEDBTEm1nNIh6Lax4I-37" value="" style="rounded=1;whiteSpace=wrap;html=1;fillColor=#dae8fc;strokeColor=#6c8ebf;" parent="IgbEDBTEm1nNIh6Lax4I-80" vertex="1">
          <mxGeometry x="157.5" y="120" width="675" height="70" as="geometry" />
        </mxCell>
        <mxCell id="IgbEDBTEm1nNIh6Lax4I-38" value="硬件服务层" style="rounded=0;whiteSpace=wrap;html=1;fillColor=#dae8fc;strokeColor=#6c8ebf;gradientColor=#7ea6e0;" parent="IgbEDBTEm1nNIh6Lax4I-80" vertex="1">
          <mxGeometry y="125" width="120" height="60" as="geometry" />
        </mxCell>
        <mxCell id="IgbEDBTEm1nNIh6Lax4I-39" value="打印聚合处理" style="rounded=0;whiteSpace=wrap;html=1;fillColor=#e1d5e7;strokeColor=#9673a6;" parent="IgbEDBTEm1nNIh6Lax4I-80" vertex="1">
          <mxGeometry x="185" y="140" width="100" height="35" as="geometry" />
        </mxCell>
        <mxCell id="IgbEDBTEm1nNIh6Lax4I-40" value="电子秤聚合处理" style="rounded=0;whiteSpace=wrap;html=1;fillColor=#e1d5e7;strokeColor=#9673a6;" parent="IgbEDBTEm1nNIh6Lax4I-80" vertex="1">
          <mxGeometry x="300" y="140" width="100" height="35" as="geometry" />
        </mxCell>
        <mxCell id="IgbEDBTEm1nNIh6Lax4I-41" value="副屏聚合处理" style="rounded=0;whiteSpace=wrap;html=1;fillColor=#e1d5e7;strokeColor=#9673a6;" parent="IgbEDBTEm1nNIh6Lax4I-80" vertex="1">
          <mxGeometry x="420" y="140" width="100" height="35" as="geometry" />
        </mxCell>
        <mxCell id="IgbEDBTEm1nNIh6Lax4I-42" value="扫码" style="rounded=0;whiteSpace=wrap;html=1;fillColor=#e1d5e7;strokeColor=#9673a6;" parent="IgbEDBTEm1nNIh6Lax4I-80" vertex="1">
          <mxGeometry x="540" y="140" width="100" height="35" as="geometry" />
        </mxCell>
        <mxCell id="IgbEDBTEm1nNIh6Lax4I-43" value="。。。" style="rounded=0;whiteSpace=wrap;html=1;fillColor=#e1d5e7;strokeColor=#9673a6;" parent="IgbEDBTEm1nNIh6Lax4I-80" vertex="1">
          <mxGeometry x="660" y="140" width="100" height="35" as="geometry" />
        </mxCell>
        <mxCell id="IgbEDBTEm1nNIh6Lax4I-65" value="" style="shape=flexArrow;endArrow=classic;startArrow=classic;html=1;entryX=0.5;entryY=1;entryDx=0;entryDy=0;exitX=0.5;exitY=0;exitDx=0;exitDy=0;fillColor=#008a00;strokeColor=#005700;" parent="IgbEDBTEm1nNIh6Lax4I-80" source="IgbEDBTEm1nNIh6Lax4I-37" target="IgbEDBTEm1nNIh6Lax4I-28" edge="1">
          <mxGeometry width="100" height="100" relative="1" as="geometry">
            <mxPoint x="490" y="100" as="sourcePoint" />
            <mxPoint x="520" y="90" as="targetPoint" />
          </mxGeometry>
        </mxCell>
        <mxCell id="IgbEDBTEm1nNIh6Lax4I-75" value="" style="rounded=1;whiteSpace=wrap;html=1;dashed=1;fillColor=#f8cecc;strokeColor=#b85450;sketch=0;shadow=0;gradientColor=#ea6b66;" parent="1" vertex="1">
          <mxGeometry x="60" y="-370" width="917.5" height="257.5" as="geometry" />
        </mxCell>
        <mxCell id="IgbEDBTEm1nNIh6Lax4I-81" value="" style="group" parent="1" vertex="1" connectable="0">
          <mxGeometry x="106" y="-370" width="887.5" height="247.5" as="geometry" />
        </mxCell>
        <mxCell id="IgbEDBTEm1nNIh6Lax4I-51" value="" style="rounded=1;whiteSpace=wrap;html=1;fillColor=#dae8fc;strokeColor=#6c8ebf;" parent="IgbEDBTEm1nNIh6Lax4I-81" vertex="1">
          <mxGeometry x="151.5" y="18.749999999999996" width="675" height="70" as="geometry" />
        </mxCell>
        <mxCell id="IgbEDBTEm1nNIh6Lax4I-52" value="插件层" style="rounded=0;whiteSpace=wrap;html=1;fillColor=#dae8fc;strokeColor=#6c8ebf;gradientColor=#7ea6e0;" parent="IgbEDBTEm1nNIh6Lax4I-81" vertex="1">
          <mxGeometry x="-6" y="23.749999999999996" width="120" height="60" as="geometry" />
        </mxCell>
        <mxCell id="IgbEDBTEm1nNIh6Lax4I-53" value="打印plugin" style="rounded=0;whiteSpace=wrap;html=1;fillColor=#e1d5e7;strokeColor=#9673a6;" parent="IgbEDBTEm1nNIh6Lax4I-81" vertex="1">
          <mxGeometry x="179" y="38.74999999999999" width="100" height="35" as="geometry" />
        </mxCell>
        <mxCell id="IgbEDBTEm1nNIh6Lax4I-54" value="电子秤plugin" style="rounded=0;whiteSpace=wrap;html=1;fillColor=#e1d5e7;strokeColor=#9673a6;" parent="IgbEDBTEm1nNIh6Lax4I-81" vertex="1">
          <mxGeometry x="294" y="38.74999999999999" width="100" height="35" as="geometry" />
        </mxCell>
        <mxCell id="IgbEDBTEm1nNIh6Lax4I-55" value="副屏plugin" style="rounded=0;whiteSpace=wrap;html=1;fillColor=#e1d5e7;strokeColor=#9673a6;" parent="IgbEDBTEm1nNIh6Lax4I-81" vertex="1">
          <mxGeometry x="414" y="38.74999999999999" width="100" height="35" as="geometry" />
        </mxCell>
        <mxCell id="IgbEDBTEm1nNIh6Lax4I-56" value="公共plugin" style="rounded=0;whiteSpace=wrap;html=1;fillColor=#e1d5e7;strokeColor=#9673a6;" parent="IgbEDBTEm1nNIh6Lax4I-81" vertex="1">
          <mxGeometry x="534" y="38.74999999999999" width="100" height="35" as="geometry" />
        </mxCell>
        <mxCell id="IgbEDBTEm1nNIh6Lax4I-57" value="。。。" style="rounded=0;whiteSpace=wrap;html=1;fillColor=#e1d5e7;strokeColor=#9673a6;" parent="IgbEDBTEm1nNIh6Lax4I-81" vertex="1">
          <mxGeometry x="654" y="38.74999999999999" width="100" height="35" as="geometry" />
        </mxCell>
        <mxCell id="IgbEDBTEm1nNIh6Lax4I-58" value="" style="rounded=1;whiteSpace=wrap;html=1;fillColor=#dae8fc;strokeColor=#6c8ebf;" parent="IgbEDBTEm1nNIh6Lax4I-81" vertex="1">
          <mxGeometry x="151.5" y="158.75" width="675" height="70" as="geometry" />
        </mxCell>
        <mxCell id="IgbEDBTEm1nNIh6Lax4I-59" value="硬件层" style="rounded=0;whiteSpace=wrap;html=1;fillColor=#dae8fc;strokeColor=#6c8ebf;gradientColor=#7ea6e0;" parent="IgbEDBTEm1nNIh6Lax4I-81" vertex="1">
          <mxGeometry x="-6" y="163.75" width="120" height="60" as="geometry" />
        </mxCell>
        <mxCell id="IgbEDBTEm1nNIh6Lax4I-60" value="商米api" style="rounded=0;whiteSpace=wrap;html=1;fillColor=#e1d5e7;strokeColor=#9673a6;" parent="IgbEDBTEm1nNIh6Lax4I-81" vertex="1">
          <mxGeometry x="179" y="178.75" width="100" height="35" as="geometry" />
        </mxCell>
        <mxCell id="IgbEDBTEm1nNIh6Lax4I-61" value="串口通信" style="rounded=0;whiteSpace=wrap;html=1;fillColor=#e1d5e7;strokeColor=#9673a6;" parent="IgbEDBTEm1nNIh6Lax4I-81" vertex="1">
          <mxGeometry x="294" y="178.75" width="100" height="35" as="geometry" />
        </mxCell>
        <mxCell id="IgbEDBTEm1nNIh6Lax4I-62" value="副屏" style="rounded=0;whiteSpace=wrap;html=1;fillColor=#e1d5e7;strokeColor=#9673a6;" parent="IgbEDBTEm1nNIh6Lax4I-81" vertex="1">
          <mxGeometry x="414" y="178.75" width="100" height="35" as="geometry" />
        </mxCell>
        <mxCell id="IgbEDBTEm1nNIh6Lax4I-63" value="扫码" style="rounded=0;whiteSpace=wrap;html=1;fillColor=#e1d5e7;strokeColor=#9673a6;" parent="IgbEDBTEm1nNIh6Lax4I-81" vertex="1">
          <mxGeometry x="534" y="178.75" width="100" height="35" as="geometry" />
        </mxCell>
        <mxCell id="IgbEDBTEm1nNIh6Lax4I-64" value="。。。" style="rounded=0;whiteSpace=wrap;html=1;fillColor=#e1d5e7;strokeColor=#9673a6;" parent="IgbEDBTEm1nNIh6Lax4I-81" vertex="1">
          <mxGeometry x="654" y="178.75" width="100" height="35" as="geometry" />
        </mxCell>
        <mxCell id="IgbEDBTEm1nNIh6Lax4I-68" value="" style="shape=flexArrow;endArrow=classic;startArrow=classic;html=1;entryX=0.5;entryY=1;entryDx=0;entryDy=0;exitX=0.5;exitY=0;exitDx=0;exitDy=0;fillColor=#008a00;strokeColor=#005700;" parent="IgbEDBTEm1nNIh6Lax4I-81" source="IgbEDBTEm1nNIh6Lax4I-58" target="IgbEDBTEm1nNIh6Lax4I-51" edge="1">
          <mxGeometry width="100" height="100" relative="1" as="geometry">
            <mxPoint x="414" y="178.75" as="sourcePoint" />
            <mxPoint x="514" y="78.75" as="targetPoint" />
          </mxGeometry>
        </mxCell>
        <mxCell id="IgbEDBTEm1nNIh6Lax4I-66" value="" style="shape=flexArrow;endArrow=classic;startArrow=classic;html=1;exitX=0.5;exitY=0;exitDx=0;exitDy=0;fillColor=#008a00;strokeColor=#005700;" parent="1" source="IgbEDBTEm1nNIh6Lax4I-51" target="IgbEDBTEm1nNIh6Lax4I-37" edge="1">
          <mxGeometry width="100" height="100" relative="1" as="geometry">
            <mxPoint x="530" y="-340" as="sourcePoint" />
            <mxPoint x="630" y="-440" as="targetPoint" />
          </mxGeometry>
        </mxCell>
        <mxCell id="IgbEDBTEm1nNIh6Lax4I-67" value="H5+" style="edgeLabel;html=1;align=center;verticalAlign=middle;resizable=0;points=[];" parent="IgbEDBTEm1nNIh6Lax4I-66" vertex="1" connectable="0">
          <mxGeometry x="0.0182" y="-3" relative="1" as="geometry">
            <mxPoint as="offset" />
          </mxGeometry>
        </mxCell>
      </root>
    </mxGraphModel>
  </diagram>
  <diagram id="UTbQzif00bNFKrltUzsM" name="Halaman-2">
    <mxGraphModel dx="1426" dy="794" grid="1" gridSize="10" guides="1" tooltips="1" connect="1" arrows="1" fold="1" page="1" pageScale="1" pageWidth="827" pageHeight="1169" math="0" shadow="0">
      <root>
        <mxCell id="L2mmnC9NN9h3gjrGADmq-0" />
        <mxCell id="L2mmnC9NN9h3gjrGADmq-1" parent="L2mmnC9NN9h3gjrGADmq-0" />
        <mxCell id="NFi4Le9Q8Fj7yvYf3liV-0" value="ServerApi" style="shape=umlLifeline;perimeter=lifelinePerimeter;whiteSpace=wrap;html=1;container=1;collapsible=0;recursiveResize=0;outlineConnect=0;rounded=1;shadow=0;comic=0;labelBackgroundColor=none;strokeWidth=1;fontFamily=Verdana;fontSize=12;align=center;" vertex="1" parent="L2mmnC9NN9h3gjrGADmq-1">
          <mxGeometry x="520" y="80" width="100" height="580" as="geometry" />
        </mxCell>
        <mxCell id="NFi4Le9Q8Fj7yvYf3liV-1" value="" style="html=1;points=[];perimeter=orthogonalPerimeter;" vertex="1" parent="NFi4Le9Q8Fj7yvYf3liV-0">
          <mxGeometry x="45" y="100" width="10" height="20" as="geometry" />
        </mxCell>
        <mxCell id="NFi4Le9Q8Fj7yvYf3liV-2" value="" style="html=1;points=[];perimeter=orthogonalPerimeter;" vertex="1" parent="NFi4Le9Q8Fj7yvYf3liV-0">
          <mxGeometry x="45" y="324" width="10" height="110" as="geometry" />
        </mxCell>
        <mxCell id="NFi4Le9Q8Fj7yvYf3liV-3" value="" style="html=1;points=[];perimeter=orthogonalPerimeter;" vertex="1" parent="NFi4Le9Q8Fj7yvYf3liV-0">
          <mxGeometry x="45" y="242" width="10" height="28" as="geometry" />
        </mxCell>
        <mxCell id="NFi4Le9Q8Fj7yvYf3liV-4" value="" style="html=1;points=[];perimeter=orthogonalPerimeter;" vertex="1" parent="NFi4Le9Q8Fj7yvYf3liV-0">
          <mxGeometry x="45" y="496" width="10" height="50" as="geometry" />
        </mxCell>
        <mxCell id="NFi4Le9Q8Fj7yvYf3liV-5" value="offlineSys" style="shape=umlLifeline;perimeter=lifelinePerimeter;whiteSpace=wrap;html=1;container=1;collapsible=0;recursiveResize=0;outlineConnect=0;rounded=1;shadow=0;comic=0;labelBackgroundColor=none;strokeWidth=1;fontFamily=Verdana;fontSize=12;align=center;" vertex="1" parent="L2mmnC9NN9h3gjrGADmq-1">
          <mxGeometry x="240" y="80" width="100" height="580" as="geometry" />
        </mxCell>
        <mxCell id="NFi4Le9Q8Fj7yvYf3liV-6" value="" style="html=1;points=[];perimeter=orthogonalPerimeter;" vertex="1" parent="NFi4Le9Q8Fj7yvYf3liV-5">
          <mxGeometry x="45" y="50" width="10" height="90" as="geometry" />
        </mxCell>
        <mxCell id="NFi4Le9Q8Fj7yvYf3liV-7" value="" style="html=1;points=[];perimeter=orthogonalPerimeter;" vertex="1" parent="NFi4Le9Q8Fj7yvYf3liV-5">
          <mxGeometry x="45" y="167" width="10" height="113" as="geometry" />
        </mxCell>
        <mxCell id="NFi4Le9Q8Fj7yvYf3liV-8" value="下发数据" style="html=1;verticalAlign=bottom;endArrow=block;entryX=0;entryY=0;" edge="1" parent="NFi4Le9Q8Fj7yvYf3liV-5">
          <mxGeometry relative="1" as="geometry">
            <mxPoint x="-90" y="172" as="sourcePoint" />
            <mxPoint x="45" y="172" as="targetPoint" />
          </mxGeometry>
        </mxCell>
        <mxCell id="NFi4Le9Q8Fj7yvYf3liV-9" value="return" style="html=1;verticalAlign=bottom;endArrow=open;dashed=1;endSize=8;exitX=0;exitY=0.95;" edge="1" parent="NFi4Le9Q8Fj7yvYf3liV-5">
          <mxGeometry relative="1" as="geometry">
            <mxPoint x="-90" y="277" as="targetPoint" />
            <mxPoint x="45" y="277" as="sourcePoint" />
          </mxGeometry>
        </mxCell>
        <mxCell id="NFi4Le9Q8Fj7yvYf3liV-10" value="" style="html=1;points=[];perimeter=orthogonalPerimeter;" vertex="1" parent="NFi4Le9Q8Fj7yvYf3liV-5">
          <mxGeometry x="45" y="487" width="10" height="69" as="geometry" />
        </mxCell>
        <mxCell id="NFi4Le9Q8Fj7yvYf3liV-11" value="更改在离线状态" style="html=1;verticalAlign=bottom;startArrow=oval;endArrow=block;startSize=8;" edge="1" parent="NFi4Le9Q8Fj7yvYf3liV-5" target="NFi4Le9Q8Fj7yvYf3liV-10">
          <mxGeometry relative="1" as="geometry">
            <mxPoint x="-90" y="487" as="sourcePoint" />
          </mxGeometry>
        </mxCell>
        <mxCell id="NFi4Le9Q8Fj7yvYf3liV-12" value="Service" style="shape=umlLifeline;perimeter=lifelinePerimeter;whiteSpace=wrap;html=1;container=1;collapsible=0;recursiveResize=0;outlineConnect=0;rounded=1;shadow=0;comic=0;labelBackgroundColor=none;strokeWidth=1;fontFamily=Verdana;fontSize=12;align=center;" vertex="1" parent="L2mmnC9NN9h3gjrGADmq-1">
          <mxGeometry x="680" y="80" width="100" height="580" as="geometry" />
        </mxCell>
        <mxCell id="NFi4Le9Q8Fj7yvYf3liV-13" value="" style="html=1;points=[];perimeter=orthogonalPerimeter;" vertex="1" parent="NFi4Le9Q8Fj7yvYf3liV-12">
          <mxGeometry x="45" y="334" width="10" height="40" as="geometry" />
        </mxCell>
        <mxCell id="NFi4Le9Q8Fj7yvYf3liV-14" value="dataBase" style="shape=umlLifeline;perimeter=lifelinePerimeter;whiteSpace=wrap;html=1;container=1;collapsible=0;recursiveResize=0;outlineConnect=0;rounded=1;shadow=0;comic=0;labelBackgroundColor=none;strokeWidth=1;fontFamily=Verdana;fontSize=12;align=center;" vertex="1" parent="L2mmnC9NN9h3gjrGADmq-1">
          <mxGeometry x="840" y="80" width="100" height="580" as="geometry" />
        </mxCell>
        <mxCell id="NFi4Le9Q8Fj7yvYf3liV-15" value="" style="html=1;points=[];perimeter=orthogonalPerimeter;" vertex="1" parent="NFi4Le9Q8Fj7yvYf3liV-14">
          <mxGeometry x="45" y="60" width="10" height="20" as="geometry" />
        </mxCell>
        <mxCell id="NFi4Le9Q8Fj7yvYf3liV-16" value="" style="html=1;points=[];perimeter=orthogonalPerimeter;" vertex="1" parent="NFi4Le9Q8Fj7yvYf3liV-14">
          <mxGeometry x="45" y="192" width="10" height="20" as="geometry" />
        </mxCell>
        <mxCell id="NFi4Le9Q8Fj7yvYf3liV-17" value="" style="html=1;points=[];perimeter=orthogonalPerimeter;" vertex="1" parent="NFi4Le9Q8Fj7yvYf3liV-14">
          <mxGeometry x="45" y="339" width="10" height="25" as="geometry" />
        </mxCell>
        <mxCell id="NFi4Le9Q8Fj7yvYf3liV-18" value="查库操作" style="html=1;verticalAlign=bottom;endArrow=block;entryX=0;entryY=0;" edge="1" parent="NFi4Le9Q8Fj7yvYf3liV-14" target="NFi4Le9Q8Fj7yvYf3liV-17">
          <mxGeometry relative="1" as="geometry">
            <mxPoint x="-100" y="339" as="sourcePoint" />
          </mxGeometry>
        </mxCell>
        <mxCell id="NFi4Le9Q8Fj7yvYf3liV-19" value="View" style="shape=umlLifeline;perimeter=lifelinePerimeter;whiteSpace=wrap;html=1;container=1;collapsible=0;recursiveResize=0;outlineConnect=0;rounded=1;shadow=0;comic=0;labelBackgroundColor=none;strokeWidth=1;fontFamily=Verdana;fontSize=12;align=center;" vertex="1" parent="L2mmnC9NN9h3gjrGADmq-1">
          <mxGeometry x="100" y="80" width="100" height="580" as="geometry" />
        </mxCell>
        <mxCell id="NFi4Le9Q8Fj7yvYf3liV-20" value="" style="html=1;points=[];perimeter=orthogonalPerimeter;" vertex="1" parent="NFi4Le9Q8Fj7yvYf3liV-19">
          <mxGeometry x="45" y="50" width="10" height="510" as="geometry" />
        </mxCell>
        <mxCell id="NFi4Le9Q8Fj7yvYf3liV-21" value="初始化" style="html=1;verticalAlign=bottom;endArrow=block;entryX=0;entryY=0;" edge="1" parent="L2mmnC9NN9h3gjrGADmq-1" source="NFi4Le9Q8Fj7yvYf3liV-19" target="NFi4Le9Q8Fj7yvYf3liV-6">
          <mxGeometry relative="1" as="geometry">
            <mxPoint x="515" y="130" as="sourcePoint" />
          </mxGeometry>
        </mxCell>
        <mxCell id="NFi4Le9Q8Fj7yvYf3liV-22" value="return" style="html=1;verticalAlign=bottom;endArrow=open;dashed=1;endSize=8;exitX=0;exitY=0.95;" edge="1" parent="L2mmnC9NN9h3gjrGADmq-1" source="NFi4Le9Q8Fj7yvYf3liV-6" target="NFi4Le9Q8Fj7yvYf3liV-19">
          <mxGeometry relative="1" as="geometry">
            <mxPoint x="160" y="206" as="targetPoint" />
            <Array as="points" />
          </mxGeometry>
        </mxCell>
        <mxCell id="NFi4Le9Q8Fj7yvYf3liV-23" value="初始化数据库" style="html=1;verticalAlign=bottom;endArrow=block;entryX=0;entryY=0;" edge="1" parent="L2mmnC9NN9h3gjrGADmq-1" source="NFi4Le9Q8Fj7yvYf3liV-5" target="NFi4Le9Q8Fj7yvYf3liV-15">
          <mxGeometry relative="1" as="geometry">
            <mxPoint x="935" y="140" as="sourcePoint" />
          </mxGeometry>
        </mxCell>
        <mxCell id="NFi4Le9Q8Fj7yvYf3liV-24" value="return" style="html=1;verticalAlign=bottom;endArrow=open;dashed=1;endSize=8;exitX=0;exitY=0.95;" edge="1" parent="L2mmnC9NN9h3gjrGADmq-1" source="NFi4Le9Q8Fj7yvYf3liV-15">
          <mxGeometry relative="1" as="geometry">
            <mxPoint x="290" y="159" as="targetPoint" />
          </mxGeometry>
        </mxCell>
        <mxCell id="NFi4Le9Q8Fj7yvYf3liV-25" value="return" style="html=1;verticalAlign=bottom;endArrow=open;dashed=1;endSize=8;exitX=0;exitY=0.95;" edge="1" parent="L2mmnC9NN9h3gjrGADmq-1" source="NFi4Le9Q8Fj7yvYf3liV-1" target="NFi4Le9Q8Fj7yvYf3liV-5">
          <mxGeometry relative="1" as="geometry">
            <mxPoint x="495" y="246" as="targetPoint" />
          </mxGeometry>
        </mxCell>
        <mxCell id="NFi4Le9Q8Fj7yvYf3liV-26" value="ajax" style="shape=umlLifeline;perimeter=lifelinePerimeter;whiteSpace=wrap;html=1;container=1;collapsible=0;recursiveResize=0;outlineConnect=0;rounded=1;shadow=0;comic=0;labelBackgroundColor=none;strokeWidth=1;fontFamily=Verdana;fontSize=12;align=center;" vertex="1" parent="L2mmnC9NN9h3gjrGADmq-1">
          <mxGeometry x="370" y="80" width="100" height="580" as="geometry" />
        </mxCell>
        <mxCell id="NFi4Le9Q8Fj7yvYf3liV-27" value="" style="html=1;points=[];perimeter=orthogonalPerimeter;" vertex="1" parent="NFi4Le9Q8Fj7yvYf3liV-26">
          <mxGeometry x="45" y="182" width="10" height="40" as="geometry" />
        </mxCell>
        <mxCell id="NFi4Le9Q8Fj7yvYf3liV-28" value="" style="html=1;points=[];perimeter=orthogonalPerimeter;" vertex="1" parent="NFi4Le9Q8Fj7yvYf3liV-26">
          <mxGeometry x="45" y="314" width="10" height="140" as="geometry" />
        </mxCell>
        <mxCell id="NFi4Le9Q8Fj7yvYf3liV-29" value="发起请求" style="html=1;verticalAlign=bottom;endArrow=block;entryX=0;entryY=0;" edge="1" parent="NFi4Le9Q8Fj7yvYf3liV-26" target="NFi4Le9Q8Fj7yvYf3liV-28">
          <mxGeometry relative="1" as="geometry">
            <mxPoint x="-210" y="314" as="sourcePoint" />
          </mxGeometry>
        </mxCell>
        <mxCell id="NFi4Le9Q8Fj7yvYf3liV-30" value="在线直接发送网络请求返回" style="edgeStyle=orthogonalEdgeStyle;rounded=0;orthogonalLoop=1;jettySize=auto;html=1;exitX=1;exitY=0.2;exitDx=0;exitDy=0;exitPerimeter=0;" edge="1" parent="NFi4Le9Q8Fj7yvYf3liV-26" source="NFi4Le9Q8Fj7yvYf3liV-28" target="NFi4Le9Q8Fj7yvYf3liV-28">
          <mxGeometry relative="1" as="geometry">
            <Array as="points">
              <mxPoint x="75" y="330" />
              <mxPoint x="75" y="394" />
            </Array>
          </mxGeometry>
        </mxCell>
        <mxCell id="NFi4Le9Q8Fj7yvYf3liV-31" value="注入依赖" style="html=1;verticalAlign=bottom;endArrow=block;entryX=0;entryY=0;" edge="1" parent="L2mmnC9NN9h3gjrGADmq-1" source="NFi4Le9Q8Fj7yvYf3liV-5" target="NFi4Le9Q8Fj7yvYf3liV-1">
          <mxGeometry relative="1" as="geometry">
            <mxPoint x="440" y="180" as="sourcePoint" />
          </mxGeometry>
        </mxCell>
        <mxCell id="NFi4Le9Q8Fj7yvYf3liV-32" value="网络下载BO数据" style="html=1;verticalAlign=bottom;endArrow=block;entryX=0;entryY=0;" edge="1" parent="L2mmnC9NN9h3gjrGADmq-1" target="NFi4Le9Q8Fj7yvYf3liV-27">
          <mxGeometry relative="1" as="geometry">
            <mxPoint x="295" y="262" as="sourcePoint" />
          </mxGeometry>
        </mxCell>
        <mxCell id="NFi4Le9Q8Fj7yvYf3liV-33" value="return" style="html=1;verticalAlign=bottom;endArrow=open;dashed=1;endSize=8;exitX=0;exitY=0.95;" edge="1" parent="L2mmnC9NN9h3gjrGADmq-1" source="NFi4Le9Q8Fj7yvYf3liV-27">
          <mxGeometry relative="1" as="geometry">
            <mxPoint x="289.5" y="300" as="targetPoint" />
          </mxGeometry>
        </mxCell>
        <mxCell id="NFi4Le9Q8Fj7yvYf3liV-34" value="分表存库" style="html=1;verticalAlign=bottom;endArrow=block;entryX=0;entryY=0;exitX=0;exitY=0.25;exitDx=0;exitDy=0;exitPerimeter=0;" edge="1" parent="L2mmnC9NN9h3gjrGADmq-1" source="NFi4Le9Q8Fj7yvYf3liV-27" target="NFi4Le9Q8Fj7yvYf3liV-16">
          <mxGeometry relative="1" as="geometry">
            <mxPoint x="935" y="242" as="sourcePoint" />
          </mxGeometry>
        </mxCell>
        <mxCell id="NFi4Le9Q8Fj7yvYf3liV-35" value="return" style="html=1;verticalAlign=bottom;endArrow=open;dashed=1;endSize=8;" edge="1" parent="L2mmnC9NN9h3gjrGADmq-1" source="NFi4Le9Q8Fj7yvYf3liV-16">
          <mxGeometry relative="1" as="geometry">
            <mxPoint x="419.5" y="292" as="targetPoint" />
            <Array as="points">
              <mxPoint x="880" y="292" />
            </Array>
          </mxGeometry>
        </mxCell>
        <mxCell id="NFi4Le9Q8Fj7yvYf3liV-36" value="离线转发到Server" style="html=1;verticalAlign=bottom;endArrow=block;entryX=0;entryY=0;" edge="1" parent="L2mmnC9NN9h3gjrGADmq-1" source="NFi4Le9Q8Fj7yvYf3liV-28" target="NFi4Le9Q8Fj7yvYf3liV-2">
          <mxGeometry relative="1" as="geometry">
            <mxPoint x="430" y="404" as="sourcePoint" />
          </mxGeometry>
        </mxCell>
        <mxCell id="NFi4Le9Q8Fj7yvYf3liV-37" value="动态接口转发到业务层" style="html=1;verticalAlign=bottom;endArrow=block;entryX=0;entryY=0;" edge="1" parent="L2mmnC9NN9h3gjrGADmq-1" target="NFi4Le9Q8Fj7yvYf3liV-13">
          <mxGeometry relative="1" as="geometry">
            <mxPoint x="580" y="414" as="sourcePoint" />
          </mxGeometry>
        </mxCell>
        <mxCell id="NFi4Le9Q8Fj7yvYf3liV-38" value="查库完成" style="html=1;verticalAlign=bottom;endArrow=open;dashed=1;endSize=8;exitX=0;exitY=0.95;" edge="1" parent="L2mmnC9NN9h3gjrGADmq-1" source="NFi4Le9Q8Fj7yvYf3liV-17">
          <mxGeometry relative="1" as="geometry">
            <mxPoint x="729.5" y="442.75" as="targetPoint" />
          </mxGeometry>
        </mxCell>
        <mxCell id="NFi4Le9Q8Fj7yvYf3liV-39" value="业务处理完毕" style="html=1;verticalAlign=bottom;endArrow=open;dashed=1;endSize=8;exitX=0;exitY=0.95;" edge="1" parent="L2mmnC9NN9h3gjrGADmq-1" source="NFi4Le9Q8Fj7yvYf3liV-13">
          <mxGeometry relative="1" as="geometry">
            <mxPoint x="569.5" y="452" as="targetPoint" />
          </mxGeometry>
        </mxCell>
        <mxCell id="NFi4Le9Q8Fj7yvYf3liV-40" value="静态接口直接查库" style="html=1;verticalAlign=bottom;endArrow=block;entryX=0;entryY=0;" edge="1" parent="L2mmnC9NN9h3gjrGADmq-1" target="NFi4Le9Q8Fj7yvYf3liV-41">
          <mxGeometry relative="1" as="geometry">
            <mxPoint x="569.5" y="474" as="sourcePoint" />
          </mxGeometry>
        </mxCell>
        <mxCell id="NFi4Le9Q8Fj7yvYf3liV-41" value="" style="html=1;points=[];perimeter=orthogonalPerimeter;" vertex="1" parent="L2mmnC9NN9h3gjrGADmq-1">
          <mxGeometry x="885" y="474" width="10" height="30" as="geometry" />
        </mxCell>
        <mxCell id="NFi4Le9Q8Fj7yvYf3liV-42" value="查库完成" style="html=1;verticalAlign=bottom;endArrow=open;dashed=1;endSize=8;exitX=0;exitY=0.95;entryX=0.9;entryY=0.891;entryDx=0;entryDy=0;entryPerimeter=0;" edge="1" parent="L2mmnC9NN9h3gjrGADmq-1" source="NFi4Le9Q8Fj7yvYf3liV-41" target="NFi4Le9Q8Fj7yvYf3liV-2">
          <mxGeometry relative="1" as="geometry">
            <mxPoint x="580" y="503" as="targetPoint" />
          </mxGeometry>
        </mxCell>
        <mxCell id="NFi4Le9Q8Fj7yvYf3liV-43" value="模拟接口返回" style="html=1;verticalAlign=bottom;endArrow=open;dashed=1;endSize=8;exitX=0;exitY=0.95;" edge="1" parent="L2mmnC9NN9h3gjrGADmq-1" source="NFi4Le9Q8Fj7yvYf3liV-28">
          <mxGeometry relative="1" as="geometry">
            <mxPoint x="149.5" y="527" as="targetPoint" />
          </mxGeometry>
        </mxCell>
        <mxCell id="NFi4Le9Q8Fj7yvYf3liV-44" value="转发处理完成" style="html=1;verticalAlign=bottom;endArrow=open;dashed=1;endSize=8;exitX=0;exitY=0.95;" edge="1" parent="L2mmnC9NN9h3gjrGADmq-1" source="NFi4Le9Q8Fj7yvYf3liV-2">
          <mxGeometry relative="1" as="geometry">
            <mxPoint x="420" y="509" as="targetPoint" />
          </mxGeometry>
        </mxCell>
        <mxCell id="NFi4Le9Q8Fj7yvYf3liV-45" value="更改数据准备完成状态" style="html=1;verticalAlign=bottom;endArrow=block;entryX=0;entryY=0;" edge="1" parent="L2mmnC9NN9h3gjrGADmq-1" target="NFi4Le9Q8Fj7yvYf3liV-3">
          <mxGeometry relative="1" as="geometry">
            <mxPoint x="295" y="322" as="sourcePoint" />
            <Array as="points">
              <mxPoint x="390" y="322" />
            </Array>
          </mxGeometry>
        </mxCell>
        <mxCell id="NFi4Le9Q8Fj7yvYf3liV-46" value="return" style="html=1;verticalAlign=bottom;endArrow=open;dashed=1;endSize=8;exitX=0;exitY=0.95;" edge="1" parent="L2mmnC9NN9h3gjrGADmq-1" source="NFi4Le9Q8Fj7yvYf3liV-3" target="NFi4Le9Q8Fj7yvYf3liV-5">
          <mxGeometry relative="1" as="geometry">
            <mxPoint x="295" y="340" as="targetPoint" />
            <Array as="points">
              <mxPoint x="430" y="350" />
            </Array>
          </mxGeometry>
        </mxCell>
        <mxCell id="NFi4Le9Q8Fj7yvYf3liV-47" value="return" style="html=1;verticalAlign=bottom;endArrow=open;dashed=1;endSize=8;" edge="1" parent="L2mmnC9NN9h3gjrGADmq-1">
          <mxGeometry relative="1" as="geometry">
            <mxPoint x="660" y="425" as="sourcePoint" />
            <mxPoint x="580" y="425" as="targetPoint" />
          </mxGeometry>
        </mxCell>
        <mxCell id="NFi4Le9Q8Fj7yvYf3liV-48" value="return" style="html=1;verticalAlign=bottom;endArrow=open;dashed=1;endSize=8;" edge="1" parent="L2mmnC9NN9h3gjrGADmq-1">
          <mxGeometry relative="1" as="geometry">
            <mxPoint x="289.5" y="636" as="sourcePoint" />
            <mxPoint x="149.5" y="636" as="targetPoint" />
            <Array as="points">
              <mxPoint x="220" y="636" />
            </Array>
          </mxGeometry>
        </mxCell>
        <mxCell id="NFi4Le9Q8Fj7yvYf3liV-49" value="更改ServerApi状态" style="html=1;verticalAlign=bottom;endArrow=block;entryX=0;entryY=0;" edge="1" parent="L2mmnC9NN9h3gjrGADmq-1" target="NFi4Le9Q8Fj7yvYf3liV-4">
          <mxGeometry relative="1" as="geometry">
            <mxPoint x="289.5" y="576" as="sourcePoint" />
          </mxGeometry>
        </mxCell>
        <mxCell id="NFi4Le9Q8Fj7yvYf3liV-50" value="return" style="html=1;verticalAlign=bottom;endArrow=open;dashed=1;endSize=8;exitX=0;exitY=0.95;" edge="1" parent="L2mmnC9NN9h3gjrGADmq-1" source="NFi4Le9Q8Fj7yvYf3liV-4">
          <mxGeometry relative="1" as="geometry">
            <mxPoint x="289.5" y="623.5" as="targetPoint" />
          </mxGeometry>
        </mxCell>
      </root>
    </mxGraphModel>
  </diagram>
</mxfile>
